{"asset":{"version":"2.0","generator":"babylon.js glTF exporter for 3dsmax 2022 v20220409.3"},"scene":0,"scenes":[{"nodes":[0]}],"nodes":[{"children":[1,2],"translation":[-0.00303950277,0.3699831,0.007962925],"rotation":[0.0,0.7071068,0.0,0.7071067],"scale":[39.5548744,39.5548744,39.5548744],"name":"Group01"},{"mesh":0,"translation":[-0.00467288028,0.0118119949,0.0226510633],"rotation":[0.0,1.77635684E-15,0.0,1.0],"name":"DrawCall_0075"},{"mesh":1,"translation":[-0.00467288028,0.0118119949,0.0226510633],"rotation":[0.0,1.77635684E-15,0.0,1.0],"name":"DrawCall_0074"}],"meshes":[{"primitives":[{"attributes":{"POSITION":1,"NORMAL":2,"TEXCOORD_0":3,"TEXCOORD_1":4},"indices":0,"material":0}],"name":"DrawCall_0075"},{"primitives":[{"attributes":{"POSITION":6,"NORMAL":7,"TEXCOORD_0":8,"TEXCOORD_1":9},"indices":5,"material":1}],"name":"DrawCall_0074"}],"accessors":[{"bufferView":0,"componentType":5123,"count":7080,"type":"SCALAR","name":"accessorIndices"},{"bufferView":1,"componentType":5126,"count":1453,"max":[0.00660308963,-0.00246351142,-0.0213129856],"min":[0.003938134,-0.00596088869,-0.0234978627],"type":"VEC3","name":"accessorPositions"},{"bufferView":1,"byteOffset":17436,"componentType":5126,"count":1453,"type":"VEC3","name":"accessorNormals"},{"bufferView":2,"componentType":5126,"count":1453,"type":"VEC2","name":"accessorUVs"},{"bufferView":2,"byteOffset":11624,"componentType":5126,"count":1453,"type":"VEC2","name":"accessorUV2s"},{"bufferView":0,"byteOffset":14160,"componentType":5123,"count":9630,"type":"SCALAR","name":"accessorIndices"},{"bufferView":1,"byteOffset":34872,"componentType":5126,"count":2042,"max":[0.00674377475,-0.005353762,-0.0190432183],"min":[0.00260198559,-0.0211604759,-0.0262589082],"type":"VEC3","name":"accessorPositions"},{"bufferView":1,"byteOffset":59376,"componentType":5126,"count":2042,"type":"VEC3","name":"accessorNormals"},{"bufferView":2,"byteOffset":23248,"componentType":5126,"count":2042,"type":"VEC2","name":"accessorUVs"},{"bufferView":2,"byteOffset":39584,"componentType":5126,"count":2042,"type":"VEC2","name":"accessorUV2s"}],"bufferViews":[{"buffer":0,"byteLength":33420,"name":"bufferViewScalar"},{"buffer":0,"byteOffset":33420,"byteLength":83880,"byteStride":12,"name":"bufferViewFloatVec3"},{"buffer":0,"byteOffset":117300,"byteLength":55920,"byteStride":8,"name":"bufferViewFloatVec2"}],"buffers":[{"uri":"test.bin","byteLength":173220}],"materials":[{"pbrMetallicRoughness":{"baseColorTexture":{"index":0},"metallicFactor":0.0,"roughnessFactor":0.450053632},"name":"e8dc762c.dds"},{"pbrMetallicRoughness":{"baseColorTexture":{"index":1},"metallicFactor":0.0,"roughnessFactor":0.450053632},"name":"bff117ef.dds"}],"textures":[{"sampler":0,"source":0,"name":"e8dc762c.png"},{"sampler":0,"source":1,"name":"bff117ef.png"}],"images":[{"uri":"e8dc762c.png"},{"uri":"bff117ef.png"}],"samplers":[{"magFilter":9729,"minFilter":9987}]}